<svg width="21" height="22" viewBox="0 0 21 22" fill="none" xmlns="http://www.w3.org/2000/svg">
<path d="M14.21 11.71C15.1904 10.9387 15.906 9.88092 16.2572 8.68394C16.6085 7.48697 16.5779 6.21027 16.1698 5.03147C15.7617 3.85267 14.9963 2.83039 13.9801 2.10686C12.9639 1.38332 11.7474 0.994507 10.5 0.994507C9.25255 0.994507 8.03611 1.38332 7.01993 2.10686C6.00374 2.83039 5.23834 3.85267 4.83021 5.03147C4.42208 6.21027 4.39151 7.48697 4.74276 8.68394C5.09401 9.88092 5.8096 10.9387 6.79 11.71C5.11007 12.383 3.64428 13.4994 2.54889 14.9399C1.45349 16.3805 0.76956 18.0913 0.569997 19.89C0.555551 20.0213 0.567113 20.1542 0.604022 20.2811C0.640931 20.4079 0.702464 20.5263 0.785108 20.6293C0.952016 20.8375 1.19478 20.9708 1.46 21C1.72521 21.0292 1.99116 20.9518 2.19932 20.7849C2.40749 20.618 2.54082 20.3752 2.57 20.11C2.78958 18.1552 3.72168 16.3498 5.18822 15.0388C6.65475 13.7278 8.5529 13.003 10.52 13.003C12.4871 13.003 14.3852 13.7278 15.8518 15.0388C17.3183 16.3498 18.2504 18.1552 18.47 20.11C18.4972 20.3557 18.6144 20.5827 18.7991 20.747C18.9838 20.9114 19.2228 21.0015 19.47 21H19.58C19.8421 20.9698 20.0817 20.8373 20.2466 20.6313C20.4114 20.4252 20.4881 20.1624 20.46 19.9C20.2595 18.0962 19.5719 16.381 18.4708 14.9382C17.3698 13.4954 15.8969 12.3795 14.21 11.71V11.71ZM10.5 11C9.70887 11 8.93551 10.7654 8.27772 10.3259C7.61992 9.88636 7.10723 9.26164 6.80448 8.53074C6.50173 7.79983 6.42251 6.99557 6.57686 6.21964C6.7312 5.44372 7.11216 4.73099 7.67157 4.17158C8.23098 3.61217 8.94371 3.2312 9.71964 3.07686C10.4956 2.92252 11.2998 3.00173 12.0307 3.30448C12.7616 3.60724 13.3863 4.11993 13.8259 4.77772C14.2654 5.43552 14.5 6.20888 14.5 7C14.5 8.06087 14.0786 9.07828 13.3284 9.82843C12.5783 10.5786 11.5609 11 10.5 11Z" fill="white"/>
</svg>
